<svg xmlns="http://www.w3.org/2000/svg" xmlns:svg="http://www.w3.org/2000/svg" id="svg4819" width="512" height="512" version="1.1" viewBox="0 0 512 512"><defs id="defs4821"><filter style="color-interpolation-filters:sRGB" id="filter4392"><feFlood id="feFlood4394" flood-color="#000" flood-opacity=".498" result="flood"/><feComposite id="feComposite4396" in="flood" in2="SourceGraphic" operator="in" result="composite1"/><feGaussianBlur id="feGaussianBlur4398" in="composite1" result="blur" stdDeviation="5"/><feOffset id="feOffset4400" dx="0" dy="0" result="offset"/><feComposite id="feComposite4402" in="SourceGraphic" in2="offset" operator="over" result="composite2"/></filter><filter style="color-interpolation-filters:sRGB" id="filter4576"><feFlood id="feFlood4578" flood-color="#000" flood-opacity=".498" result="flood"/><feComposite id="feComposite4580" in="flood" in2="SourceGraphic" operator="in" result="composite1"/><feGaussianBlur id="feGaussianBlur4582" in="composite1" result="blur" stdDeviation="3"/><feOffset id="feOffset4584" dx="0" dy="0" result="offset"/><feComposite id="feComposite4586" in="SourceGraphic" in2="offset" operator="over" result="composite2"/></filter><filter style="color-interpolation-filters:sRGB" id="filter4588"><feFlood id="feFlood4590" flood-color="#000" flood-opacity=".498" result="flood"/><feComposite id="feComposite4592" in="flood" in2="SourceGraphic" operator="in" result="composite1"/><feGaussianBlur id="feGaussianBlur4594" in="composite1" result="blur" stdDeviation="3"/><feOffset id="feOffset4596" dx="0" dy="0" result="offset"/><feComposite id="feComposite4598" in="SourceGraphic" in2="offset" operator="over" result="composite2"/></filter><filter style="color-interpolation-filters:sRGB" id="filter4608"><feFlood id="feFlood4610" flood-color="#000" flood-opacity=".498" result="flood"/><feComposite id="feComposite4612" in="flood" in2="SourceGraphic" operator="in" result="composite1"/><feGaussianBlur id="feGaussianBlur4614" in="composite1" result="blur" stdDeviation="3"/><feOffset id="feOffset4616" dx="0" dy="0" result="offset"/><feComposite id="feComposite4618" in="SourceGraphic" in2="offset" operator="over" result="composite2"/></filter><filter style="color-interpolation-filters:sRGB" id="filter4620"><feFlood id="feFlood4622" flood-color="#000" flood-opacity=".498" result="flood"/><feComposite id="feComposite4624" in="flood" in2="SourceGraphic" operator="in" result="composite1"/><feGaussianBlur id="feGaussianBlur4626" in="composite1" result="blur" stdDeviation="3"/><feOffset id="feOffset4628" dx="0" dy="0" result="offset"/><feComposite id="feComposite4630" in="SourceGraphic" in2="offset" operator="over" result="composite2"/></filter><filter style="color-interpolation-filters:sRGB" id="filter4736"><feFlood id="feFlood4738" flood-color="#000" flood-opacity=".498" result="flood"/><feComposite id="feComposite4740" in="flood" in2="SourceGraphic" operator="in" result="composite1"/><feGaussianBlur id="feGaussianBlur4742" in="composite1" result="blur" stdDeviation="5"/><feOffset id="feOffset4744" dx="0" dy="0" result="offset"/><feComposite id="feComposite4746" in="SourceGraphic" in2="offset" operator="over" result="composite2"/></filter><filter style="color-interpolation-filters:sRGB" id="filter4784"><feFlood id="feFlood4786" flood-color="#000" flood-opacity=".498" result="flood"/><feComposite id="feComposite4788" in="flood" in2="SourceGraphic" operator="in" result="composite1"/><feGaussianBlur id="feGaussianBlur4790" in="composite1" result="blur" stdDeviation="3"/><feOffset id="feOffset4792" dx="0" dy="2" result="offset"/><feComposite id="feComposite4794" in="SourceGraphic" in2="offset" operator="over" result="composite2"/></filter><filter style="color-interpolation-filters:sRGB" id="filter4830"><feFlood id="feFlood4832" flood-color="#000" flood-opacity=".498" result="flood"/><feComposite id="feComposite4834" in="flood" in2="SourceGraphic" operator="in" result="composite1"/><feGaussianBlur id="feGaussianBlur4836" in="composite1" result="blur" stdDeviation="5"/><feOffset id="feOffset4838" dx="0" dy="0" result="offset"/><feComposite id="feComposite4840" in="SourceGraphic" in2="offset" operator="over" result="composite2"/></filter><filter style="color-interpolation-filters:sRGB" id="filter4842"><feFlood id="feFlood4844" flood-color="#000" flood-opacity=".498" result="flood"/><feComposite id="feComposite4846" in="flood" in2="SourceGraphic" operator="in" result="composite1"/><feGaussianBlur id="feGaussianBlur4848" in="composite1" result="blur" stdDeviation="5"/><feOffset id="feOffset4850" dx="0" dy="0" result="offset"/><feComposite id="feComposite4852" in="SourceGraphic" in2="offset" operator="over" result="composite2"/></filter><filter style="color-interpolation-filters:sRGB" id="filter4637"><feFlood id="feFlood4639" flood-color="#000" flood-opacity=".498" result="flood"/><feComposite id="feComposite4641" in="flood" in2="SourceGraphic" operator="in" result="composite1"/><feGaussianBlur id="feGaussianBlur4643" in="composite1" result="blur" stdDeviation="5"/><feOffset id="feOffset4645" dx="0" dy="1" result="offset"/><feComposite id="feComposite4647" in="SourceGraphic" in2="offset" operator="over" result="composite2"/></filter><filter style="color-interpolation-filters:sRGB" id="filter4649"><feFlood id="feFlood4651" flood-color="#000" flood-opacity=".498" result="flood"/><feComposite id="feComposite4653" in="flood" in2="SourceGraphic" operator="in" result="composite1"/><feGaussianBlur id="feGaussianBlur4655" in="composite1" result="blur" stdDeviation="5"/><feOffset id="feOffset4657" dx="0" dy=".7" result="offset"/><feComposite id="feComposite4659" in="SourceGraphic" in2="offset" operator="over" result="composite2"/></filter><filter style="color-interpolation-filters:sRGB" id="filter4661"><feFlood id="feFlood4663" flood-color="#000" flood-opacity=".498" result="flood"/><feComposite id="feComposite4665" in="flood" in2="SourceGraphic" operator="in" result="composite1"/><feGaussianBlur id="feGaussianBlur4667" in="composite1" result="blur" stdDeviation="5"/><feOffset id="feOffset4669" dx="0" dy=".7" result="offset"/><feComposite id="feComposite4671" in="SourceGraphic" in2="offset" operator="over" result="composite2"/></filter><filter style="color-interpolation-filters:sRGB" id="filter4682"><feFlood id="feFlood4684" flood-color="#000" flood-opacity=".498" result="flood"/><feComposite id="feComposite4686" in="flood" in2="SourceGraphic" operator="in" result="composite1"/><feGaussianBlur id="feGaussianBlur4688" in="composite1" result="blur" stdDeviation="5"/><feOffset id="feOffset4690" dx="0" dy=".7" result="offset"/><feComposite id="feComposite4692" in="SourceGraphic" in2="offset" operator="over" result="composite2"/></filter><filter style="color-interpolation-filters:sRGB" id="filter4694"><feFlood id="feFlood4696" flood-color="#000" flood-opacity=".498" result="flood"/><feComposite id="feComposite4698" in="flood" in2="SourceGraphic" operator="in" result="composite1"/><feGaussianBlur id="feGaussianBlur4700" in="composite1" result="blur" stdDeviation="5"/><feOffset id="feOffset4702" dx="0" dy=".7" result="offset"/><feComposite id="feComposite4704" in="SourceGraphic" in2="offset" operator="over" result="composite2"/></filter><filter style="color-interpolation-filters:sRGB" id="filter4879"><feFlood id="feFlood4881" flood-color="#000" flood-opacity=".498" result="flood"/><feComposite id="feComposite4883" in="flood" in2="SourceGraphic" operator="in" result="composite1"/><feGaussianBlur id="feGaussianBlur4885" in="composite1" result="blur" stdDeviation="2"/><feOffset id="feOffset4887" dx="0" dy=".7" result="offset"/><feComposite id="feComposite4889" in="SourceGraphic" in2="offset" operator="over" result="composite2"/></filter><filter style="color-interpolation-filters:sRGB" id="filter5095"><feFlood id="feFlood5097" flood-color="#000" flood-opacity=".498" result="flood"/><feComposite id="feComposite5099" in="flood" in2="SourceGraphic" operator="in" result="composite1"/><feGaussianBlur id="feGaussianBlur5101" in="composite1" result="blur" stdDeviation="3"/><feOffset id="feOffset5103" dx="0" dy="1" result="offset"/><feComposite id="feComposite5105" in="SourceGraphic" in2="offset" operator="over" result="composite2"/></filter></defs><metadata id="metadata4824"/><g id="layer1" transform="translate(0,-540.36219)"><ellipse style="color:#000;clip-rule:nonzero;display:inline;overflow:visible;visibility:visible;opacity:1;isolation:auto;mix-blend-mode:normal;color-interpolation:sRGB;color-interpolation-filters:linearRGB;solid-color:#000;solid-opacity:1;fill:#000;fill-opacity:1;fill-rule:nonzero;stroke:none;stroke-width:4.5;stroke-linecap:butt;stroke-linejoin:round;stroke-miterlimit:4;stroke-dasharray:none;stroke-dashoffset:0;stroke-opacity:1;color-rendering:auto;image-rendering:auto;shape-rendering:auto;text-rendering:auto;enable-background:accumulate" id="path5494-5-0" cx="203" cy="871.019" r="14.964"/><path style="color:#000;clip-rule:nonzero;display:inline;overflow:visible;visibility:visible;opacity:1;isolation:auto;mix-blend-mode:normal;color-interpolation:sRGB;color-interpolation-filters:linearRGB;solid-color:#000;solid-opacity:1;fill:#a05a2c;fill-opacity:1;fill-rule:nonzero;stroke:none;stroke-width:4.5;stroke-linecap:butt;stroke-linejoin:round;stroke-miterlimit:4;stroke-dasharray:none;stroke-dashoffset:0;stroke-opacity:1;color-rendering:auto;image-rendering:auto;shape-rendering:auto;text-rendering:auto;enable-background:accumulate;filter:url(#filter4661)" id="path5533" d="m 147.26218,836.04571 c -25.20823,-0.10755 -39.52686,29.07087 -38.48314,49.6054 -50.615937,46.28423 -16.205613,107.16245 37.64298,108.72598 32.0833,-1.5e-4 42.68786,-30.52742 42.68801,-63.04845 -0.0198,-17.82216 -8.00167,-34.67629 -21.70832,-45.83854 1.05039,-3.56483 1.5874,-7.26473 1.59442,-10.98515 0,-21.34208 -0.67913,-38.45924 -21.73395,-38.45924 z"/><path style="fill:#666;stroke:none;filter:url(#filter4649)" id="path5680-4" d="m 329.75057,848.9372 -0.99384,5.44742 c -0.54665,2.99618 -1.51544,9.1802 -2.15123,13.74049 -0.96309,6.90853 -2.0091,8.79753 -6.28134,11.3267 -4.99839,2.95911 -5.3259,2.94503 -13.05113,-0.51884 -17.00524,-7.62485 -16.50462,-7.73628 -24.18511,5.36828 -0.83958,1.43242 -1.5755,2.69215 -2.21413,3.80274 -4.47081,7.77361 -4.19222,8.34457 -1.54404,11.31067 1.69375,1.89713 6.44342,5.94635 10.55236,9.00298 6.60433,4.91288 7.45215,6.27116 7.30351,11.70885 -0.14851,5.43242 -1.3543,7.12566 -10.33319,14.48994 -5.59176,4.58626 -10.1684,8.74733 -10.16843,9.24712 -2e-5,1.6752 11.82228,22.36426 13.3138,23.29861 0.81025,0.50761 6.89179,-1.29426 13.51104,-4.00793 11.69561,-4.79479 12.17517,-4.8546 16.98848,-2.07698 4.0965,2.36394 5.15278,4.28857 6.10882,11.14635 0.6358,4.56033 1.60491,10.74732 2.1515,13.74346 l 0.99533,5.44345 13.89887,-1.1e-4 13.90372,0 1.72092,-6.28433 c 0.94717,-3.45714 1.73487,-8.17143 1.75242,-10.47619 0.0565,-7.42942 1.72011,-10.87992 6.61533,-13.72769 4.61835,-2.68631 5.20277,-2.61426 16.03306,2.06875 6.18176,2.67299 12.00889,4.88209 12.94949,4.90711 0.94061,0.025 4.43989,-4.67108 7.77519,-10.43288 3.33531,-5.76188 6.078,-11.60524 6.09452,-12.98806 0.0166,-1.38282 -4.3658,-5.90842 -9.74023,-10.05691 -8.71341,-6.72592 -9.78365,-8.20675 -9.87259,-13.6679 -0.0899,-5.51114 0.89302,-6.93673 9.81558,-14.24623 5.45348,-4.46763 9.91683,-9.15506 9.92014,-10.41728 0.006,-1.70693 -8.94144,-18.4331 -12.49772,-23.36766 -0.2065,-0.2861 -6.15615,1.75011 -13.22574,4.53279 -12.27748,4.83246 -13.0599,4.94274 -17.42196,2.33088 -4.67438,-2.79905 -6.3909,-6.49185 -6.44709,-13.88872 -0.0176,-2.30473 -0.80397,-7.0164 -1.75108,-10.47347 l -1.72259,-6.28557 -13.90368,-0.002 -13.89894,1.7e-4 z m 8.33566,50.05554 a 21.565918,21.860154 0 0 1 26.41031,15.4593 21.565918,21.860154 0 0 1 -15.24637,26.77349 21.565918,21.860154 0 0 1 -26.41413,-15.4583 21.565918,21.860154 0 0 1 15.25019,-26.77449 z"/><rect style="color:#000;clip-rule:nonzero;display:inline;overflow:visible;visibility:visible;opacity:1;isolation:auto;mix-blend-mode:normal;color-interpolation:sRGB;color-interpolation-filters:linearRGB;solid-color:#000;solid-opacity:1;fill:#fff;fill-opacity:1;fill-rule:nonzero;stroke:none;stroke-width:5;stroke-linecap:round;stroke-linejoin:round;stroke-miterlimit:4;stroke-dasharray:none;stroke-dashoffset:0;stroke-opacity:1;color-rendering:auto;image-rendering:auto;shape-rendering:auto;text-rendering:auto;enable-background:accumulate" id="rect4178" width="80.358" height="21.079" x="182.318" y="965.934"/><path style="color:#000;clip-rule:nonzero;display:inline;overflow:visible;visibility:visible;opacity:1;isolation:auto;mix-blend-mode:normal;color-interpolation:sRGB;color-interpolation-filters:linearRGB;solid-color:#000;solid-opacity:1;fill:#de8787;fill-opacity:1;fill-rule:nonzero;stroke:none;stroke-width:4.5;stroke-linecap:butt;stroke-linejoin:round;stroke-miterlimit:4;stroke-dasharray:none;stroke-dashoffset:0;stroke-opacity:1;color-rendering:auto;image-rendering:auto;shape-rendering:auto;text-rendering:auto;enable-background:accumulate" id="path6299" d="m 248.10536,1013.0243 0.0735,6e-4 0.27913,-33.12148 -0.0735,-6.2e-4 -0.0549,6.51764 -66.53394,-0.61382 c 18.2854,10.09362 31.55974,25.45918 66.38614,18.15098 z"/><path style="color:#000;clip-rule:nonzero;display:inline;overflow:visible;visibility:visible;opacity:1;isolation:auto;mix-blend-mode:normal;color-interpolation:sRGB;color-interpolation-filters:linearRGB;solid-color:#000;solid-opacity:1;fill:#4d4d4d;fill-opacity:1;fill-rule:nonzero;stroke:none;stroke-width:4.5;stroke-linecap:butt;stroke-linejoin:round;stroke-miterlimit:4;stroke-dasharray:none;stroke-dashoffset:0;stroke-opacity:1;color-rendering:auto;image-rendering:auto;shape-rendering:auto;text-rendering:auto;enable-background:accumulate" id="rect5437-2" d="m 247.7409,975.65034 58.09206,-0.65817 c 0.3574,12.17742 -35.60705,22.20893 -58.09206,23.00293 z"/><g id="g4814" transform="matrix(1.0166163,0,0,1.0304866,-12.543356,-24.305675)" style="stroke:none;filter:url(#filter4694)"><path id="path5473" d="m 256,294.35938 0,136.21289 0.0293,0 0,-0.5625 57.14258,-0.63868 c 0.35133,11.80977 -34.97938,21.53912 -57.09961,22.32032 l 0,11.02343 -0.0723,0 0,32.51368 c 35.99476,0.4041 68.91204,-13.70201 99.9375,-36.72461 l 0,-164.14453 -99.9375,0 z" transform="translate(0,540.36219)" style="color:#000;clip-rule:nonzero;display:inline;overflow:visible;visibility:visible;opacity:1;isolation:auto;mix-blend-mode:normal;color-interpolation:sRGB;color-interpolation-filters:linearRGB;solid-color:#000;solid-opacity:1;fill:#b3b3b3;fill-opacity:1;fill-rule:nonzero;stroke:none;stroke-width:4.5;stroke-linecap:butt;stroke-linejoin:round;stroke-miterlimit:4;stroke-dasharray:none;stroke-dashoffset:0;stroke-opacity:1;color-rendering:auto;image-rendering:auto;shape-rendering:auto;text-rendering:auto;enable-background:accumulate"/><path id="rect5437" d="m 256,834.72124 0,135.93276 -57.14285,0.17857 c 4.80435,15.52459 35.24626,22.13924 57.14285,21.25 l 0,43.50783 c -30.78963,-0.3457 -63.82206,-11.2715 -99.9375,-36.72463 l 0,-164.14453 z" style="color:#000;clip-rule:nonzero;display:inline;overflow:visible;visibility:visible;opacity:1;isolation:auto;mix-blend-mode:normal;color-interpolation:sRGB;color-interpolation-filters:linearRGB;solid-color:#000;solid-opacity:1;fill:#ffe1e1;fill-opacity:1;fill-rule:nonzero;stroke:none;stroke-width:4.5;stroke-linecap:butt;stroke-linejoin:round;stroke-miterlimit:4;stroke-dasharray:none;stroke-dashoffset:0;stroke-opacity:1;color-rendering:auto;image-rendering:auto;shape-rendering:auto;text-rendering:auto;enable-background:accumulate"/></g><ellipse style="color:#000;clip-rule:nonzero;display:inline;overflow:visible;visibility:visible;opacity:1;isolation:auto;mix-blend-mode:normal;color-interpolation:sRGB;color-interpolation-filters:linearRGB;solid-color:#000;solid-opacity:1;fill:#333;fill-opacity:1;fill-rule:nonzero;stroke:none;stroke-width:4.60587597;stroke-linecap:butt;stroke-linejoin:round;stroke-miterlimit:4;stroke-dasharray:none;stroke-dashoffset:0;stroke-opacity:1;color-rendering:auto;image-rendering:auto;shape-rendering:auto;text-rendering:auto;enable-background:accumulate" id="path5494-5-1" cx="196.153" cy="887.901" rx="18.239" ry="18.488"/><ellipse style="color:#000;clip-rule:nonzero;display:inline;overflow:visible;visibility:visible;opacity:1;isolation:auto;mix-blend-mode:normal;color-interpolation:sRGB;color-interpolation-filters:linearRGB;solid-color:#000;solid-opacity:1;fill:#fff;fill-opacity:1;fill-rule:nonzero;stroke:none;stroke-width:4.60587597;stroke-linecap:butt;stroke-linejoin:round;stroke-miterlimit:4;stroke-dasharray:none;stroke-dashoffset:0;stroke-opacity:1;color-rendering:auto;image-rendering:auto;shape-rendering:auto;text-rendering:auto;enable-background:accumulate" id="path6225-7" cx="204.14" cy="882.658" rx="5.743" ry="5.822"/><ellipse style="color:#000;clip-rule:nonzero;display:inline;overflow:visible;visibility:visible;opacity:1;isolation:auto;mix-blend-mode:normal;color-interpolation:sRGB;color-interpolation-filters:linearRGB;solid-color:#000;solid-opacity:1;fill:#1fdf1f;fill-opacity:1;fill-rule:nonzero;stroke:none;stroke-width:4.60587597;stroke-linecap:butt;stroke-linejoin:round;stroke-miterlimit:4;stroke-dasharray:none;stroke-dashoffset:0;stroke-opacity:1;color-rendering:auto;image-rendering:auto;shape-rendering:auto;text-rendering:auto;enable-background:accumulate" id="path5494-5" cx="294.184" cy="887.901" rx="18.239" ry="18.488"/><ellipse style="color:#000;clip-rule:nonzero;display:inline;overflow:visible;visibility:visible;opacity:1;isolation:auto;mix-blend-mode:normal;color-interpolation:sRGB;color-interpolation-filters:linearRGB;solid-color:#000;solid-opacity:1;fill:#fff;fill-opacity:1;fill-rule:nonzero;stroke:none;stroke-width:4.60587597;stroke-linecap:butt;stroke-linejoin:round;stroke-miterlimit:4;stroke-dasharray:none;stroke-dashoffset:0;stroke-opacity:1;color-rendering:auto;image-rendering:auto;shape-rendering:auto;text-rendering:auto;enable-background:accumulate" id="path6225" cx="300.967" cy="882.13" rx="5.743" ry="5.822"/><g id="g4743" style="filter:url(#filter4879)"><path id="path5538" d="m 149.12011,835.91605 c -9.75347,0 -23.64321,12.16601 -23.43637,26.91145 26.77544,0.89277 12.23382,16.59426 54.45054,16.59426 23.57775,-8.2e-4 52.36301,-19.37569 52.36241,-43.27513 -0.001,-0.0393 -0.004,-0.0786 -0.005,-0.11789 z" style="color:#000;clip-rule:nonzero;display:inline;overflow:visible;visibility:visible;opacity:1;isolation:auto;mix-blend-mode:normal;color-interpolation:sRGB;color-interpolation-filters:linearRGB;solid-color:#000;solid-opacity:1;fill:#d38d5f;fill-opacity:1;fill-rule:nonzero;stroke:none;stroke-width:4.9000001;stroke-linecap:butt;stroke-linejoin:round;stroke-miterlimit:4;stroke-dasharray:none;stroke-dashoffset:0;stroke-opacity:1;color-rendering:auto;image-rendering:auto;shape-rendering:auto;text-rendering:auto;enable-background:accumulate"/><path id="path5538-5" d="m 349.49606,836.33762 c 9.75346,0 23.64321,12.16602 23.43637,26.91145 -26.77544,0.89278 -12.23382,16.59426 -54.45054,16.59426 -23.57775,-8.1e-4 -52.36301,-19.37568 -52.36241,-43.27513 10e-4,-0.0393 0.004,-0.0786 0.005,-0.11789 z" style="color:#000;clip-rule:nonzero;display:inline;overflow:visible;visibility:visible;opacity:1;isolation:auto;mix-blend-mode:normal;color-interpolation:sRGB;color-interpolation-filters:linearRGB;solid-color:#000;solid-opacity:1;fill:#4d4d4d;fill-opacity:1;fill-rule:nonzero;stroke:none;stroke-width:4.9000001;stroke-linecap:butt;stroke-linejoin:round;stroke-miterlimit:4;stroke-dasharray:none;stroke-dashoffset:0;stroke-opacity:1;color-rendering:auto;image-rendering:auto;shape-rendering:auto;text-rendering:auto;enable-background:accumulate"/></g><g id="g4404" transform="matrix(1.0166163,0,0,1.0304866,-12.543356,-24.305675)" style="stroke:none;filter:url(#filter5095)"><path id="rect4160" d="m 255.89286,880.36219 5.82421,-0.13837 18.004,70.01981 -23.64731,0.11856 z" style="color:#000;clip-rule:nonzero;display:inline;overflow:visible;visibility:visible;opacity:1;isolation:auto;mix-blend-mode:normal;color-interpolation:sRGB;color-interpolation-filters:linearRGB;solid-color:#000;solid-opacity:1;fill:#666;fill-opacity:1;fill-rule:nonzero;stroke:none;stroke-width:5;stroke-linecap:round;stroke-linejoin:round;stroke-miterlimit:4;stroke-dasharray:none;stroke-dashoffset:0;stroke-opacity:1;color-rendering:auto;image-rendering:auto;shape-rendering:auto;text-rendering:auto;enable-background:accumulate"/><path id="rect4160-0" d="m 255.94643,880.36219 c -4.61559,1.13878 -6.93068,3.5072 -8.38698,6.84881 -9.11992,20.92646 -30.50667,62.87939 8.38498,63.15119 z" style="color:#000;clip-rule:nonzero;display:inline;overflow:visible;visibility:visible;opacity:1;isolation:auto;mix-blend-mode:normal;color-interpolation:sRGB;color-interpolation-filters:linearRGB;solid-color:#000;solid-opacity:1;fill:#ffcfcf;fill-opacity:1;fill-rule:nonzero;stroke:none;stroke-width:5;stroke-linecap:round;stroke-linejoin:round;stroke-miterlimit:4;stroke-dasharray:none;stroke-dashoffset:0;stroke-opacity:1;color-rendering:auto;image-rendering:auto;shape-rendering:auto;text-rendering:auto;enable-background:accumulate"/></g><g id="g4673" style="filter:url(#filter4682)"><path id="rect5513" d="m 247.71042,792.74395 0,32.00949 97.94463,0 0,-32.00949 -97.94463,0 z" style="color:#000;clip-rule:nonzero;display:inline;overflow:visible;visibility:visible;opacity:1;isolation:auto;mix-blend-mode:normal;color-interpolation:sRGB;color-interpolation-filters:linearRGB;solid-color:#000;solid-opacity:1;fill:gray;fill-opacity:1;fill-rule:nonzero;stroke:none;stroke-width:4.5;stroke-linecap:butt;stroke-linejoin:round;stroke-miterlimit:4;stroke-dasharray:none;stroke-dashoffset:0;stroke-opacity:1;color-rendering:auto;image-rendering:auto;shape-rendering:auto;text-rendering:auto;enable-background:accumulate"/><path id="path5516" d="m 247.71042,792.74395 -97.94463,0 0,32.00949 97.94463,0 0,-32.00949 z" style="color:#000;clip-rule:nonzero;display:inline;overflow:visible;visibility:visible;opacity:1;isolation:auto;mix-blend-mode:normal;color-interpolation:sRGB;color-interpolation-filters:linearRGB;solid-color:#000;solid-opacity:1;fill:#b3b3b3;fill-opacity:1;fill-rule:nonzero;stroke:none;stroke-width:4.5;stroke-linecap:butt;stroke-linejoin:round;stroke-miterlimit:4;stroke-dasharray:none;stroke-dashoffset:0;stroke-opacity:1;color-rendering:auto;image-rendering:auto;shape-rendering:auto;text-rendering:auto;enable-background:accumulate"/><path id="path5432" d="m 256.47476,549.80506 c -2.93079,0.0237 -5.85751,0.22598 -8.76434,0.60581 -0.0277,65.61462 0,171.31359 0,246.9062 l 102.82518,0 0,-51.59276 c 0.34138,-2.19919 0.64564,-4.39387 0.82997,-6.13864 l 0.74658,-7.06246 6.41143,-2.55609 6.41143,-2.5581 9.34811,7.55758 c 5.14171,4.15711 10.34711,7.56009 11.56798,7.56361 3.05362,0.0103 24.90114,-22.4949 24.90114,-25.64946 0,-1.33375 -3.32577,-6.68709 -7.38833,-11.89487 l -7.38636,-9.4676 2.32909,-5.44225 c 1.28072,-2.99325 2.66205,-5.81504 3.06771,-6.26947 0.40565,-0.45443 6.4466,-1.77039 13.4245,-2.92441 l 12.68785,-2.09721 0.31968,-17.45587 c 0.19141,-10.42474 -0.1393,-17.92314 -0.82203,-18.61518 -0.62875,-0.63732 -6.64398,-1.99532 -13.36493,-3.01699 l -12.21726,-1.85568 -2.69443,-6.71426 -2.69047,-6.71226 7.36849,-9.55615 c 4.05209,-5.256 7.36649,-10.33897 7.36649,-11.2951 0,-2.04511 -22.89779,-25.96343 -24.85547,-25.96343 -0.73476,0 -5.85983,3.4567 -11.38928,7.68437 l -10.05298,7.6884 -6.15927,-2.5883 -5.96467,-2.50376 c -0.0655,-0.0303 -0.13101,-0.0605 -0.19658,-0.0906 l -1.89623,-12.34168 c -1.04342,-6.79095 -2.4584,-13.03053 -3.14516,-13.86931 -0.96141,-1.17423 -9.08067,-1.71556 -17.20305,-1.66447 -8.12235,0.0511 -16.24958,0.69142 -17.22093,1.87782 -0.69477,0.84854 -1.89525,5.90378 -2.8493,11.68555 -13.78021,-15.03842 -33.09617,-23.61037 -53.34456,-23.67301 z" style="color:#000;clip-rule:nonzero;display:inline;overflow:visible;visibility:visible;opacity:1;isolation:auto;mix-blend-mode:normal;color-interpolation:sRGB;color-interpolation-filters:linearRGB;solid-color:#000;solid-opacity:1;fill:#ccc;fill-opacity:1;fill-rule:nonzero;stroke:none;stroke-width:4.5;stroke-linecap:butt;stroke-linejoin:round;stroke-miterlimit:4;stroke-dasharray:none;stroke-dashoffset:0;stroke-opacity:1;color-rendering:auto;image-rendering:auto;shape-rendering:auto;text-rendering:auto;enable-background:accumulate"/><path id="path5490" d="m 247.71042,819.17836 0,16.911 102.82518,0 0,-16.911 -102.82518,0 z" style="color:#000;clip-rule:nonzero;display:inline;overflow:visible;visibility:visible;opacity:1;isolation:auto;mix-blend-mode:normal;color-interpolation:sRGB;color-interpolation-filters:linearRGB;solid-color:#000;solid-opacity:1;fill:#ccc;fill-opacity:1;fill-rule:nonzero;stroke:none;stroke-width:4.5;stroke-linecap:butt;stroke-linejoin:round;stroke-miterlimit:4;stroke-dasharray:none;stroke-dashoffset:0;stroke-opacity:1;color-rendering:auto;image-rendering:auto;shape-rendering:auto;text-rendering:auto;enable-background:accumulate"/><path id="path5488" d="m 247.71042,550.41054 a 73.110297,74.107784 0 0 0 -50.24705,29.88411 73.110297,74.107784 0 0 0 -24.78797,-4.48825 73.110297,74.107784 0 0 0 -73.109015,74.10849 73.110297,74.107784 0 0 0 44.891955,68.35225 l 0,79.0496 103.25208,0 0,-246.9062 z" style="color:#000;clip-rule:nonzero;display:inline;overflow:visible;visibility:visible;opacity:1;isolation:auto;mix-blend-mode:normal;color-interpolation:sRGB;color-interpolation-filters:linearRGB;solid-color:#000;solid-opacity:1;fill:#e6e6e6;fill-opacity:1;fill-rule:nonzero;stroke:none;stroke-width:4.5;stroke-linecap:butt;stroke-linejoin:round;stroke-miterlimit:4;stroke-dasharray:none;stroke-dashoffset:0;stroke-opacity:1;color-rendering:auto;image-rendering:auto;shape-rendering:auto;text-rendering:auto;enable-background:accumulate"/><path id="path5492" d="m 247.71042,819.17836 -103.25208,0 0,16.911 103.25208,0 0,-16.911 z" style="color:#000;clip-rule:nonzero;display:inline;overflow:visible;visibility:visible;opacity:1;isolation:auto;mix-blend-mode:normal;color-interpolation:sRGB;color-interpolation-filters:linearRGB;solid-color:#000;solid-opacity:1;fill:#e6e6e6;fill-opacity:1;fill-rule:nonzero;stroke:none;stroke-width:4.5;stroke-linecap:butt;stroke-linejoin:round;stroke-miterlimit:4;stroke-dasharray:none;stroke-dashoffset:0;stroke-opacity:1;color-rendering:auto;image-rendering:auto;shape-rendering:auto;text-rendering:auto;enable-background:accumulate"/><path id="path4473-2" d="m 145.97025,816.61919 204.28572,0" style="fill:none;fill-rule:evenodd;stroke:none;stroke-width:5;stroke-linecap:butt;stroke-linejoin:miter;stroke-miterlimit:4;stroke-dasharray:none;stroke-opacity:1"/></g></g></svg>